# AST/ASF file generated using VICON BodyLanguage
# -----------------------------------------------
:version 1.10
:name VICON
:units
  mass 1.0
  length 0.45
  angle deg
:documentation
   .ast/.asf automatically generated from VICON data using
   VICON BodyBuilder and BodyLanguage model FoxedUp or BRILLIANT.MOD
:root
   order TX TY TZ RX RY RZ
   axis XYZ
   position 0 0 0  
   orientation 0 -0 0 
:bonedata
  begin
     id 1 
     name lhipjoint
     direction 0.515797 -0.759363 0.396637 
     length 2.47888 
     axis 0 -0 0  XYZ
  end
  begin
     id 2 
     name lfemur
     direction 0.34202 -0.939693 0  
     length 6.81885  
     axis 0 -0 20  XYZ
    dof rx ry rz
    limits (-160.0 20.0)
           (-70.0 70.0)
           (-60.0 70.0)
  end
  begin
     id 3 
     name ltibia
     direction 0.342037 -0.939687 0   
     length 7.89258   
     axis 0 -0 20   XYZ
    dof rx
    limits (-10.0 170.0)
  end
  begin
     id 4 
     name lfoot
     direction 0.173497 -0.476678 0.861787   
     length 2.51543   
     axis -90 -1.13533e-015 20   XYZ
    dof rx rz
    limits (-45.0 90.0)
           (-70.0 20.0)
  end
  begin
     id 5 
     name ltoes
     direction 1.53564e-011 -4.21897e-011 1   
     length 1.21388   
     axis -90 -1.13533e-015 20   XYZ
    dof rx
    limits (-90.0 20.0)
  end
  begin
     id 6 
     name rhipjoint
     direction -0.489454 -0.772941 0.403729   
     length 2.43534  
     axis 0 -0 0  XYZ 
  end
  begin
     id 7 
     name rfemur
     direction -0.34202 -0.939693 0   
     length 7.10357   
     axis 0 -0 -20   XYZ
    dof rx ry rz
    limits (-160.0 20.0)
           (-70.0 70.0)
           (-70.0 60.0)
  end
  begin
     id 8 
     name rtibia
     direction -0.34202 -0.939693 0   
     length 9.16127   
     axis 0 -0 -20   XYZ
    dof rx
    limits (-10.0 170.0)
 end
 begin
     id 9 
     name rfoot
     direction -0.270974 -0.748671 0.605033   
     length 1.74894  
     axis -90 1.13533e-015 -20   XYZ
    dof rx rz
    limits (-45.0 90.0)
           (-20.0 70.0)
  end
  begin
     id 10 
     name rtoes
     direction -1.53557e-011 -4.21759e-011 1   
     length 0.787585   
     axis -90 1.13533e-015 -20   XYZ
    dof rx
    limits (-90.0 20.0)
  end
  begin
     id 11 
     name lowerback
     direction -0.0140249 0.999561 0.0260968   
     length 2.16963   
     axis 0 -0 0   XYZ
    dof rx ry rz
    limits (-20.0 45.0)
           (-30.0 30.0)
           (-30.0 30.0)
  end
  begin
     id 12 
     name upperback
     direction 0.00860018 0.999959 -0.002711   
     length 2.1726   
     axis 0 -0 0   XYZ
    dof rx ry rz
    limits (-20.0 45.0)
           (-30.0 30.0)
           (-30.0 30.0)
  end
  begin
     id 13 
     name thorax
     direction 0.015211 0.999782 -0.0143191   
     length 2.17061   
     axis 0 -0 0   XYZ
    dof rx ry rz
    limits (-20.0 45.0)
           (-30.0 30.0)
           (-30.0 30.0)
  end
  begin
     id 14 
     name lowerneck
     direction -0.0140143 0.999447 0.030145   
     length 2.26749   
     axis 0 -0 0   XYZ
    dof rx ry rz
    limits (-20.0 45.0)
           (-30.0 30.0)
           (-30.0 30.0)
  end
  begin
     id 15 
     name upperneck
     direction 0.118062 0.961438 -0.248392   
     length 2.22728   
     axis 0 -0 0   XYZ
    dof rx ry rz
    limits (-20.0 45.0)
           (-30.0 30.0)
           (-30.0 30.0)
  end
  begin
     id 16
     name head
     direction 0.0431885 0.9954 -0.085514  
     length 2.28786  
     axis 0 -0 0   XYZ
    dof rx ry rz
    limits (-20.0 45.0)
           (-30.0 30.0)
           (-30.0 30.0)
  end
  begin
     id 17 
     name lclavicle
     direction 0.912126 0.409548 0.0172323  
     length 4.31571  
     axis 0 -0 0   XYZ
    dof ry rz
    limits (-20.0 10.0)
           (0.0 20.0)
  end
  begin
     id 18 
     name lhumerus
     direction 1 -4.48977e-011 1.93091e-027   
     length 5.13658   
     axis 180 -30 -90   XYZ
    dof rx ry rz
    limits (-60.0 90.0)
           (-90.0 90.0)
           (-90.0 90.0)
  end
  begin
     id 19
     name lradius
     direction 1 -4.48916e-011 6.84018e-027   
     length 3.22473   
     axis 180 -30 -90   XYZ
    dof rx
    limits (-10.0 170.0)
  end
  begin
     id 20
     name lwrist
     direction 1 -4.48987e-011 7.01981e-027   
     length 1.61236   
     axis -4.37994e-015 90 90   XYZ
    dof ry
    limits (-180.0 0.0)
 end
  begin
     id 21 
     name lhand
     direction 1 -4.49037e-011 1.40335e-026   
     length 0.936406   
     axis -8.96029e-015 90 90   XYZ
    dof rx rz
    limits (-90.0 90.0)
           (-45.0 45.0)
  end
  begin
     id 22 
     name lfingers
     direction 1 -4.48886e-011 2.8104e-026   
     length 0.754955   
     axis -1.79203e-014 90 90   XYZ
    dof rx
    limits (0.0 90.0)
  end
  begin
     id 23
     name lthumb
     direction 0.707107 -6.34937e-011 0.707107   
     length 1.08397   
     axis -90 45 -4.48555e-014   XYZ
    dof rx rz
    limits (-45.0 45.0)
           (-45.0 45.0)
  end
  begin
     id 24 
     name rclavicle
     direction -0.947962 0.317997 0.0156638   
     length 4.86918  
     axis 0 -0 0   XYZ 
    dof ry rz
    limits (-10.0 20.0)
           (-20.0 0.0)
  end
  begin
     id 25 
     name rhumerus
     direction -1 -4.48951e-011 2.80534e-018  
     length 5.60911   
     axis 180 30 90   XYZ
    dof rx ry rz
    limits (-90.0 60.0)
           (-90.0 90.0)
           (-90.0 90.0)
  end
  begin
     id 26 
     name rradius
     direction -1 -4.4898e-011 2.11315e-027   
     length 3.38704   
     axis 180 30 90   XYZ
    dof rx
    limits (-10.0 170.0)
  end
  begin
     id 27 
     name rwrist
     direction -1 -4.48933e-011 7.02314e-027   
     length 1.69352   
     axis -4.37994e-015 -90 -90   XYZ
    dof ry
    limits (-180.0 0.0)
  end
  begin
     id 28
     name rhand
     direction -1 -4.48937e-011 1.40458e-026   
     length 0.755878   
     axis -8.96029e-015 -90 -90   XYZ
    dof rx rz
    limits (-90.0 90.0)
           (-45.0 45.0)
  end
  begin
     id 29
     name rfingers
     direction -1 -4.4901e-011 2.80737e-026   
     length 0.609409   
     axis -1.79203e-014 -90 -90   XYZ
    dof rx
    limits (0.0 90.0)
  end
  begin
     id 30
     name rthumb
     direction -0.707107 -6.34968e-011 0.707107   
     length 0.874992   
     axis -90 -45 4.48555e-014   XYZ
    dof rx rz
    limits (-45.0 45.0)
           (-45.0 45.0)
  end
:hierarchy
  begin
    root lhipjoint rhipjoint lowerback
    lhipjoint lfemur
    lfemur ltibia
    ltibia lfoot
    lfoot ltoes
    rhipjoint rfemur
    rfemur rtibia
    rtibia rfoot
    rfoot rtoes
    lowerback upperback
    upperback thorax
    thorax lowerneck lclavicle rclavicle
    lowerneck upperneck
    upperneck head
    lclavicle lhumerus
    lhumerus lradius
    lradius lwrist
    lwrist lhand lthumb
    lhand lfingers
    rclavicle rhumerus
    rhumerus rradius
    rradius rwrist
    rwrist rhand rthumb
    rhand rfingers
  end

#!OML:ASF C:\ViconDB\ViconDB\414\Spring2016\041811\Spring2016.ASF
:FULLY-SPECIFIED
:DEGREES
16
root 6.67549 17.271 35.9728 -165.812 -2.40851 -181.865
lowerback 9.29644 0.459879 -2.63075
upperback 2.3137 0.119524 -1.19464
thorax -2.81624 -0.0140857 0.233819
lowerneck -10.7313 -2.44111 -10.9016
upperneck 27.9504 -7.1757 12.4926
head 11.6615 -3.76891 5.46469
rclavicle -1.39149e-015 -1.72943e-014
rhumerus -49.269 -1.61358 -94.473
rradius 80.2737
rwrist 14.2189
rhand -36.5547 -14.4657
rfingers 7.12502
rthumb -9.64506 -44.2249
lclavicle -1.39149e-015 -1.72943e-014
lhumerus -50.7309 -17.942 97.3198
lradius 73.57
lwrist -13.7318
lhand -32.1262 13.684
lfingers 7.12502
lthumb -5.37057 43.5959
rfemur -30.9591 -5.73937 22.7501
rtibia 48.0723
rfoot -173.209 14.864
rtoes -9.47262
lfemur -8.08733 -11.9558 -16.8545
ltibia 39.213
lfoot -24.5051 -2.502
ltoes -22.9428
17
root 6.6773 17.2401 35.9208 -165.263 -2.89272 -181.798
lowerback 9.30824 0.12624 -2.23259
upperback 2.30674 -0.286218 -1.24214
thorax -2.82244 -0.216825 0.00790685
lowerneck -10.5885 -2.43363 -11.0845
upperneck 27.9857 -7.17983 12.5216
head 11.6532 -3.79832 5.51034
rclavicle 5.36719e-015 5.1684e-015
rhumerus -49.8213 -2.05631 -94.4346
rradius 79.0731
rwrist 14.0786
rhand -36.3935 -14.0245
rfingers 7.12502
rthumb -9.48952 -43.7908
lclavicle 5.36719e-015 5.1684e-015
lhumerus -50.0359 -18.8189 97.2683
lradius 75.422
lwrist -13.5239
lhand -31.6842 13.3975
lfingers 7.12502
lthumb -4.94378 43.3198
rfemur -32.0705 -6.08765 23.0215
rtibia 49.3271
rfoot -173.37 14.8031
rtoes -9.03278
lfemur -8.41541 -12.8038 -16.6368
ltibia 39.1022
lfoot -25.1933 -2.15334
ltoes -22.7799
18
root 6.67929 17.2058 35.8569 -164.739 -3.18418 -181.779
lowerback 9.13068 -0.104328 -2.05042
upperback 2.39792 -0.56766 -1.19376
thorax -2.62634 -0.36015 -0.0134812
lowerneck -10.7306 -2.43794 -11.227
upperneck 28.2352 -7.11509 12.2773
head 11.7661 -3.80857 5.45775
rclavicle 3.18055e-015 -1.39149e-015
rhumerus -50.2734 -2.50938 -94.1847
rradius 77.9646
rwrist 13.854
rhand -36.5047 -14.4737
rfingers 7.12502
rthumb -9.59682 -44.2351
lclavicle 3.18055e-015 -1.39149e-015
lhumerus -49.0893 -19.5409 97.2815
lradius 77.2073
lwrist -13.4302
lhand -31.184 12.9804
lfingers 7.12502
lthumb -4.46079 42.9134
rfemur -33.1891 -6.34426 23.1981
rtibia 50.6741
rfoot -173.443 14.7992
rtoes -8.57231
lfemur -8.63526 -13.4286 -16.5185
ltibia 38.9922
lfoot -25.9773 -1.84443
ltoes -23.325
19
root 6.67631 17.1683 35.7916 -164.514 -3.4252 -181.789
lowerback 9.40447 -0.302744 -2.15902
upperback 2.49437 -0.842773 -0.880486
thorax -2.66754 -0.498625 0.404572
lowerneck -11.0068 -2.33513 -11.6303
upperneck 28.5311 -6.77208 11.9651
head 11.8909 -3.72019 5.46659
rclavicle 1.799e-014 2.64384e-014
rhumerus -50.9519 -2.50195 -93.6321
rradius 77.1344
rwrist 13.0638
rhand -36.5687 -14.8431
rfingers 7.12502
rthumb -9.65852 -44.6017
lclavicle 1.799e-014 2.64384e-014
lhumerus -48.2377 -19.8478 97.6301
lradius 79.0427
lwrist -14.1665
lhand -32.2737 13.8427
lfingers 7.12502
lthumb -5.51298 43.751
rfemur -34.0146 -6.77142 23.3018
rtibia 52.0478
rfoot -173.463 14.8686
rtoes -8.19441
lfemur -8.51145 -14.0782 -16.5714
ltibia 38.7851
lfoot -26.8126 -1.43798
ltoes -23.9245
20
root 6.67661 17.1229 35.7104 -164.362 -3.33933 -181.778
lowerback 9.70358 -0.35572 -2.14873
upperback 2.52679 -0.924588 -0.805801
thorax -2.79632 -0.540989 0.489142
lowerneck -10.9112 -2.34827 -11.8783
upperneck 28.5836 -6.74951 11.902
head 11.8945 -3.75024 5.49196
rclavicle -1.09332e-014 5.96354e-016
rhumerus -51.9293 -2.82949 -93.2589
rradius 76.5452
rwrist 12.5649
rhand -36.3956 -15.694
rfingers 7.12502
rthumb -9.4915 -45.4602
lclavicle -1.09332e-014 5.96354e-016
lhumerus -47.661 -20.5568 97.7852
lradius 81.1787
lwrist -14.1147
lhand -33.0197 13.7913
lfingers 7.12502
lthumb -6.23324 43.6796
rfemur -34.751 -7.04843 23.3984
rtibia 53.5075
rfoot -173.422 15.0413
rtoes -8.29982
lfemur -8.09526 -14.4199 -16.6896
ltibia 38.5285
lfoot -27.5478 -1.21759
ltoes -23.6097
21
root 6.70047 17.0829 35.6139 -164.361 -3.26408 -181.827
lowerback 10.0049 -0.411443 -2.37182
upperback 2.6854 -1.04825 -0.808323
thorax -2.7916 -0.611472 0.629842
lowerneck -11.014 -2.28379 -11.8754
upperneck 28.6401 -6.6553 11.9074
head 11.9234 -3.70445 5.50857
rclavicle 1.19271e-014 1.17283e-014
rhumerus -52.6506 -3.39019 -93.0879
rradius 75.7331
rwrist 12.0266
rhand -36.1152 -15.5535
rfingers 7.12502
rthumb -9.22099 -45.3318
lclavicle 1.19271e-014 1.17283e-014
lhumerus -47.0455 -21.2113 97.6388
lradius 83.3979
lwrist -14.3954
lhand -33.4248 13.4096
lfingers 7.12502
lthumb -6.62431 43.286
rfemur -35.2321 -7.10986 23.4846
rtibia 54.9794
rfoot -173.615 14.9957
rtoes -7.98308
lfemur -7.4351 -14.6312 -16.7811
ltibia 38.2057
lfoot -28.1052 -1.10436
ltoes -23.9059
22
root 6.69162 17.0348 35.5183 -164.236 -3.01542 -181.88
lowerback 9.80635 -0.332792 -2.64242
upperback 3.0269 -0.973039 -0.553668
thorax -2.32137 -0.592238 1.0305
lowerneck -11.1572 -2.34647 -12.395
upperneck 28.5133 -6.56462 11.9957
head 11.9122 -3.68449 5.64768
rclavicle 1.799e-014 -4.37326e-015
rhumerus -53.2524 -3.70348 -92.3839
rradius 75.2079
rwrist 11.8555
rhand -36.174 -16.1154
rfingers 7.12502
rthumb -9.2777 -45.8913
lclavicle 1.799e-014 -4.37326e-015
lhumerus -46.1271 -21.7135 97.9454
lradius 85.7495
lwrist -14.773
lhand -33.1847 12.502
lfingers 7.12502
lthumb -6.3925 42.3855
rfemur -35.9216 -7.37786 23.4202
rtibia 56.4921
rfoot -173.353 15.2485
rtoes -7.62204
lfemur -6.90925 -14.8512 -17.1053
ltibia 37.9276
lfoot -28.603 -0.669408
ltoes -24.0215
23
root 6.69091 16.9851 35.4186 -164.24 -2.91124 -181.912
lowerback 10.0701 -0.323671 -2.74911
upperback 3.18493 -0.991714 -0.403236
thorax -2.29761 -0.61155 1.251
lowerneck -11.1163 -2.36609 -12.5358
upperneck 28.3845 -6.50801 11.9437
head 11.8479 -3.66971 5.65686
rclavicle -6.01324e-015 6.55989e-015
rhumerus -54.1445 -4.01478 -91.8805
rradius 74.8171
rwrist 11.0046
rhand -36.2972 -15.9758
rfingers 7.12502
rthumb -9.39658 -45.7463
lclavicle -6.01324e-015 6.55989e-015
lhumerus -45.4386 -22.0828 97.9671
lradius 88.1539
lwrist -16.9407
lhand -32.715 14.1482
lfingers 7.12502
lthumb -5.93906 44.045
rfemur -36.4434 -7.76111 23.4191
rtibia 57.9955
rfoot -173.053 15.4912
rtoes -7.18757
lfemur -6.29328 -14.9929 -17.3205
ltibia 37.6827
lfoot -28.9813 -0.449893
ltoes -24.013
24
root 6.69915 16.9456 35.3127 -164.209 -2.94631 -181.76
lowerback 10.5038 -0.331075 -2.42851
upperback 3.10114 -0.987014 -0.46732
thorax -2.62977 -0.604301 1.01156
lowerneck -10.7231 -2.23118 -12.2607
upperneck 28.3159 -6.5345 12.1574
head 11.7377 -3.65821 5.68482
rclavicle 3.72721e-015 5.26779e-015
rhumerus -55.4988 -4.72604 -91.7632
rradius 74.6459
rwrist 10.5414
rhand -36.3399 -16.9255
rfingers 7.12502
rthumb -9.43777 -46.6941
lclavicle 3.72721e-015 5.26779e-015
lhumerus -45.346 -22.8272 97.9007
lradius 90.1844
lwrist -17.4947
lhand -32.9237 12.2951
lfingers 7.12502
lthumb -6.14054 42.1861
rfemur -36.9119 -8.00355 23.6697
rtibia 59.4104
rfoot -172.895 15.5027
rtoes -6.81007
lfemur -5.7427 -15.1883 -17.2156
ltibia 37.5059
lfoot -29.2059 -0.422359
ltoes -24.4519
25
root 6.7102 16.9039 35.2172 -164.17 -3.40901 -181.873
lowerback 11.0447 -0.542172 -2.34703
upperback 3.13258 -1.28323 -0.375907
thorax -2.88356 -0.75381 1.10782
lowerneck -10.8301 -2.13114 -12.2824
upperneck 28.333 -6.41243 12.2971
head 11.7521 -3.58721 5.7614
rclavicle -1.36167e-014 6.26172e-015
rhumerus -56.6127 -4.7807 -91.6267
rradius 75.0721
rwrist 7.79959
rhand -36.0604 -16.9252
rfingers 7.12502
rthumb -9.16804 -46.7059
lclavicle -1.36167e-014 6.26172e-015
lhumerus -44.8686 -23.16 97.8466
lradius 92.0992
lwrist -17.7312
lhand -32.8787 10.8332
lfingers 7.12502
lthumb -6.09706 40.7254
rfemur -37.4071 -8.70558 23.6953
rtibia 60.8212
rfoot -172.587 15.6351
rtoes -6.71991
lfemur -5.39465 -15.4567 -17.2024
ltibia 37.3063
lfoot -29.0834 -0.522538
ltoes -24.5041
26
root 6.71943 16.863 35.104 -164.129 -3.41371 -181.867
lowerback 11.4039 -0.599337 -2.22611
upperback 3.14808 -1.36236 -0.332939
thorax -3.06345 -0.794845 1.10238
lowerneck -10.7952 -2.03678 -12.2643
upperneck 28.2912 -6.3406 12.4758
head 11.7211 -3.53759 5.83688
rclavicle 1.27222e-014 5.76476e-015
rhumerus -57.5824 -5.36312 -91.3925
rradius 74.9202
rwrist 7.45123
rhand -36.0748 -17.6781
rfingers 7.12502
rthumb -9.18198 -47.4582
lclavicle 1.27222e-014 5.76476e-015
lhumerus -44.8692 -24.1272 98.3355
lradius 94.5277
lwrist -15.7251
lhand -34.4126 11.4779
lfingers 7.12502
lthumb -7.57781 41.3222
rfemur -37.795 -9.00658 23.7281
rtibia 62.103
rfoot -172.228 15.7872
rtoes -6.48632
lfemur -4.97079 -15.2287 -17.1709
ltibia 37.1699
lfoot -28.6535 -0.597842
ltoes -24.6337
